<svg width="9" height="9" viewBox="0 0 9 9" fill="none" xmlns="http://www.w3.org/2000/svg">
<path d="M1.20002 0.189992L4.50002 3.48999L7.80002 0.199992C7.86499 0.133881 7.94298 0.0819716 8.02904 0.047546C8.11511 0.0131204 8.20738 -0.00307239 8.30002 -8.44884e-06C8.48181 0.0117559 8.6531 0.0892827 8.78192 0.218096C8.91073 0.346909 8.98826 0.518202 9.00002 0.699992C9.00093 0.789374 8.98367 0.878008 8.94929 0.960518C8.91491 1.04303 8.86413 1.1177 8.80002 1.17999L5.49002 4.49999L8.80002 7.81999C8.93002 7.94599 9.00202 8.11999 9.00002 8.29999C8.98826 8.48178 8.91073 8.65307 8.78192 8.78189C8.6531 8.9107 8.48181 8.98823 8.30002 8.99999C8.20738 9.00306 8.11511 8.98686 8.02904 8.95244C7.94298 8.91801 7.86499 8.8661 7.80002 8.79999L4.50002 5.50999L1.21002 8.79999C1.14505 8.8661 1.06706 8.91801 0.981 8.95244C0.894936 8.98686 0.802665 9.00306 0.710022 8.99999C0.524841 8.99035 0.349797 8.91246 0.218678 8.78134C0.0875581 8.65022 0.00966053 8.47517 2.15723e-05 8.28999C-0.00088323 8.20061 0.0163776 8.11198 0.050757 8.02946C0.0851365 7.94695 0.135918 7.87229 0.200022 7.80999L3.51002 4.49999L0.190022 1.17999C0.127723 1.11686 0.0787896 1.04181 0.0461446 0.959339C0.0134996 0.876867 -0.00218716 0.788662 2.15723e-05 0.699992C0.0117859 0.518202 0.0893127 0.346909 0.218126 0.218096C0.346939 0.0892827 0.518232 0.0117559 0.700022 -8.44884e-06C0.791944 -0.00437441 0.88378 0.0102428 0.969804 0.042932C1.05583 0.0756213 1.1342 0.125682 1.20002 0.189992V0.189992Z" fill="black"/>
</svg>
