<svg width="11" height="11" viewBox="0 0 11 11" fill="none" xmlns="http://www.w3.org/2000/svg">
<path d="M2.20002 1.18999L5.50002 4.48999L8.80002 1.19999C8.86499 1.13388 8.94298 1.08197 9.02904 1.04755C9.11511 1.01312 9.20738 0.996928 9.30002 0.999992C9.48181 1.01176 9.6531 1.08928 9.78192 1.2181C9.91073 1.34691 9.98826 1.5182 10 1.69999C10.0009 1.78937 9.98367 1.87801 9.94929 1.96052C9.91491 2.04303 9.86413 2.1177 9.80002 2.17999L6.49002 5.49999L9.80002 8.81999C9.93002 8.94599 10.002 9.11999 10 9.29999C9.98826 9.48178 9.91073 9.65307 9.78192 9.78189C9.6531 9.9107 9.48181 9.98823 9.30002 9.99999C9.20738 10.0031 9.11511 9.98686 9.02904 9.95244C8.94298 9.91801 8.86499 9.8661 8.80002 9.79999L5.50002 6.50999L2.21002 9.79999C2.14505 9.8661 2.06706 9.91801 1.981 9.95244C1.89494 9.98686 1.80266 10.0031 1.71002 9.99999C1.52484 9.99035 1.3498 9.91246 1.21868 9.78134C1.08756 9.65022 1.00966 9.47517 1.00002 9.28999C0.999117 9.20061 1.01638 9.11198 1.05076 9.02946C1.08514 8.94695 1.13592 8.87229 1.20002 8.80999L4.51002 5.49999L1.19002 2.17999C1.12772 2.11686 1.07879 2.04181 1.04614 1.95934C1.0135 1.87687 0.997813 1.78866 1.00002 1.69999C1.01179 1.5182 1.08931 1.34691 1.21813 1.2181C1.34694 1.08928 1.51823 1.01176 1.70002 0.999992C1.79194 0.995626 1.88378 1.01024 1.9698 1.04293C2.05583 1.07562 2.1342 1.12568 2.20002 1.18999V1.18999Z" fill="white"/>
</svg>
